<svg id="svg" version="1.1" xmlns="http://www.w3.org/2000/svg" xmlns:xlink="http://www.w3.org/1999/xlink" width="400" height="412.37113402061857" viewBox="0, 0, 400,412.37113402061857"><g id="svgg"><path id="path0" d="M68.200 83.068 C 59.462 83.799,46.543 92.226,42.572 99.786 C 42.337 100.233,41.661 101.462,41.071 102.517 C 39.897 104.613,38.602 108.169,37.765 111.600 C 37.057 114.503,36.930 343.085,37.635 345.754 C 39.476 352.716,40.989 356.033,44.223 360.200 C 47.372 364.256,47.868 364.759,51.402 367.474 C 55.032 370.264,59.086 372.409,62.600 373.398 C 63.920 373.770,65.720 374.282,66.600 374.537 C 69.141 375.272,297.476 375.196,300.200 374.459 C 307.917 372.371,311.993 370.379,316.200 366.638 C 317.080 365.856,317.906 365.212,318.036 365.208 C 319.419 365.163,326.477 354.277,327.636 350.402 C 329.483 344.229,329.352 351.817,329.488 242.816 C 329.610 145.441,329.584 141.067,328.908 141.821 C 328.518 142.254,325.808 146.164,322.884 150.509 C 317.824 158.030,314.788 162.497,314.110 163.422 C 313.939 163.654,313.620 164.142,313.400 164.507 C 313.180 164.871,311.190 167.832,308.978 171.085 C 294.859 191.849,291.942 196.145,285.405 205.800 C 283.021 209.320,279.584 214.382,277.767 217.049 C 275.951 219.716,272.530 224.756,270.165 228.249 C 267.801 231.742,264.148 237.120,262.048 240.200 C 259.947 243.280,257.508 246.880,256.627 248.200 C 255.746 249.520,254.885 250.660,254.713 250.733 C 254.541 250.807,254.400 251.007,254.400 251.178 C 254.400 251.349,252.585 254.169,250.367 257.444 C 248.149 260.720,245.675 264.390,244.868 265.600 C 244.062 266.810,243.309 267.890,243.194 268.000 C 243.079 268.110,241.369 270.630,239.393 273.600 C 237.417 276.570,235.665 279.060,235.500 279.133 C 235.335 279.207,235.200 279.421,235.200 279.610 C 235.200 279.886,230.147 287.419,228.901 289.000 C 228.728 289.220,226.802 292.100,224.622 295.400 C 222.442 298.700,220.552 301.490,220.422 301.600 C 220.293 301.710,218.265 304.680,215.916 308.200 C 208.812 318.846,205.002 321.108,199.010 318.238 C 197.038 317.294,206.378 326.498,133.823 254.000 C 63.190 183.421,68.989 189.774,69.016 183.000 C 69.037 178.054,69.368 177.402,75.924 169.400 C 78.447 166.320,81.161 162.990,81.955 162.000 C 83.360 160.247,86.520 157.017,87.642 156.187 C 90.028 154.421,96.439 153.797,99.451 155.038 C 100.723 155.562,107.286 159.974,108.000 160.785 C 108.110 160.910,111.800 163.708,116.200 167.004 C 120.600 170.299,124.290 173.087,124.400 173.200 C 124.510 173.312,125.320 173.938,126.200 174.590 C 127.080 175.242,127.980 175.923,128.200 176.103 C 128.420 176.284,132.560 179.398,137.400 183.024 C 142.240 186.650,146.473 189.838,146.808 190.108 C 147.142 190.379,152.452 194.380,158.608 199.000 C 164.763 203.620,169.890 207.499,170.000 207.619 C 170.110 207.740,172.720 209.715,175.800 212.009 C 178.880 214.302,181.703 216.453,182.073 216.789 C 182.443 217.125,183.433 217.735,184.273 218.144 C 185.113 218.554,186.113 219.049,186.495 219.244 C 188.038 220.035,192.747 219.651,194.991 218.552 C 197.829 217.162,198.819 216.070,206.186 206.200 C 209.634 201.580,212.848 197.283,213.328 196.651 C 213.807 196.019,214.830 194.650,215.600 193.609 C 218.492 189.699,220.577 186.983,221.080 186.471 C 221.366 186.181,221.600 185.810,221.600 185.647 C 221.600 185.484,221.917 185.002,222.305 184.575 C 222.693 184.149,224.685 181.550,226.732 178.800 C 228.778 176.050,230.868 173.260,231.377 172.600 C 231.885 171.940,234.383 168.610,236.926 165.200 C 239.470 161.790,241.699 158.820,241.881 158.600 C 242.063 158.380,242.923 157.210,243.793 156.000 C 244.662 154.790,245.473 153.710,245.594 153.600 C 245.817 153.398,253.524 143.100,255.000 141.032 C 255.440 140.416,255.984 139.706,256.208 139.456 C 256.433 139.205,257.332 138.010,258.207 136.800 C 259.082 135.590,260.020 134.330,260.292 134.000 C 260.563 133.670,262.595 130.970,264.808 128.000 C 267.020 125.030,269.049 122.330,269.315 121.999 C 269.582 121.669,270.785 120.049,271.990 118.399 C 273.194 116.750,274.281 115.310,274.405 115.200 C 274.529 115.090,275.572 113.693,276.722 112.096 C 277.873 110.499,279.078 108.879,279.400 108.496 C 279.722 108.113,281.795 105.370,284.008 102.400 C 286.220 99.430,288.249 96.730,288.516 96.400 C 288.783 96.070,289.719 94.810,290.595 93.600 C 291.471 92.390,292.336 91.220,292.517 91.000 C 295.667 87.173,298.046 83.475,297.557 83.165 C 297.049 82.843,72.026 82.748,68.200 83.068 " stroke="none" fill="#9bb3c3" fill-rule="evenodd"></path><path id="path1" d="M361.081 0.808 C 359.500 1.655,355.600 5.340,355.600 5.987 C 355.600 6.194,355.150 6.814,354.600 7.364 C 354.050 7.914,353.600 8.475,353.600 8.610 C 353.600 8.746,353.375 9.108,353.100 9.415 C 352.024 10.614,351.600 11.176,351.600 11.400 C 351.600 11.624,351.176 12.186,350.100 13.385 C 349.825 13.692,349.600 14.054,349.600 14.190 C 349.600 14.325,349.150 14.886,348.600 15.436 C 348.050 15.986,347.600 16.655,347.600 16.923 C 347.600 17.191,347.150 17.748,346.600 18.161 C 346.050 18.574,345.600 19.168,345.600 19.482 C 345.600 19.795,345.060 20.506,344.400 21.061 C 343.740 21.617,343.200 22.316,343.200 22.616 C 343.200 22.915,342.974 23.304,342.698 23.480 C 342.421 23.656,341.664 24.520,341.014 25.400 C 340.365 26.280,339.691 27.060,339.517 27.133 C 339.342 27.207,339.200 27.445,339.200 27.662 C 339.200 27.879,338.975 28.308,338.700 28.615 C 337.623 29.816,337.200 30.376,337.200 30.601 C 337.200 30.731,336.750 31.286,336.200 31.836 C 335.650 32.386,335.200 33.016,335.200 33.236 C 335.200 33.456,334.750 34.086,334.200 34.636 C 333.650 35.186,333.200 35.858,333.200 36.130 C 333.200 36.401,332.825 36.888,332.366 37.212 C 331.908 37.535,331.251 38.340,330.907 39.000 C 330.562 39.660,329.948 40.435,329.540 40.723 C 329.133 41.010,328.797 41.460,328.793 41.723 C 328.789 41.985,328.339 42.624,327.793 43.142 C 327.247 43.660,326.800 44.254,326.800 44.461 C 326.800 44.668,326.350 45.255,325.800 45.765 C 325.250 46.275,324.800 46.819,324.800 46.974 C 324.800 47.130,324.575 47.508,324.300 47.815 C 323.093 49.161,322.800 49.595,322.800 50.039 C 322.800 50.630,318.673 50.219,318.469 49.607 C 318.394 49.383,317.898 49.200,317.367 49.200 C 316.835 49.200,316.400 49.040,316.400 48.845 C 316.400 48.466,315.726 48.284,311.500 47.522 C 310.015 47.254,308.800 46.893,308.800 46.718 C 308.800 46.543,307.936 46.400,306.880 46.400 C 305.824 46.400,304.735 46.175,304.460 45.900 C 303.795 45.235,73.564 44.955,66.400 45.610 C 58.707 46.314,57.600 46.462,57.600 46.785 C 57.600 46.957,56.525 47.218,55.212 47.367 C 53.899 47.515,52.718 47.809,52.589 48.018 C 52.459 48.228,51.823 48.400,51.176 48.400 C 50.529 48.400,50.000 48.580,50.000 48.800 C 50.000 49.020,49.651 49.200,49.224 49.200 C 48.797 49.200,48.346 49.364,48.222 49.565 C 48.097 49.766,47.232 50.058,46.298 50.214 C 45.364 50.370,44.510 50.620,44.400 50.770 C 44.125 51.143,41.381 52.400,40.840 52.400 C 40.598 52.400,40.400 52.580,40.400 52.800 C 40.400 53.020,40.040 53.200,39.600 53.200 C 39.160 53.200,38.800 53.380,38.800 53.600 C 38.800 53.820,38.530 54.000,38.200 54.000 C 37.870 54.000,37.600 54.180,37.600 54.400 C 37.600 54.620,37.234 54.800,36.787 54.800 C 36.341 54.800,35.871 55.070,35.745 55.400 C 35.618 55.730,35.174 56.000,34.757 56.000 C 34.341 56.000,34.000 56.160,34.000 56.357 C 34.000 56.553,33.550 56.826,33.000 56.964 C 32.450 57.102,32.000 57.392,32.000 57.608 C 32.000 57.823,31.812 58.000,31.582 58.000 C 31.352 58.000,30.714 58.450,30.164 59.000 C 29.614 59.550,29.022 60.000,28.848 60.000 C 28.675 60.000,27.753 60.720,26.800 61.600 C 25.847 62.480,24.956 63.200,24.821 63.200 C 24.396 63.200,19.079 68.501,17.199 70.800 C 16.210 72.010,15.085 73.349,14.700 73.775 C 14.315 74.202,14.000 74.669,14.000 74.814 C 14.000 74.959,13.685 75.450,13.300 75.905 C 12.915 76.360,12.303 77.089,11.941 77.524 C 11.578 77.959,11.161 78.694,11.014 79.157 C 10.866 79.621,10.578 80.000,10.373 80.000 C 10.168 80.000,10.000 80.360,10.000 80.800 C 10.000 81.240,9.823 81.600,9.608 81.600 C 9.392 81.600,9.102 82.050,8.964 82.600 C 8.826 83.150,8.553 83.600,8.357 83.600 C 8.160 83.600,8.000 83.870,8.000 84.200 C 8.000 84.530,7.820 84.800,7.600 84.800 C 7.380 84.800,7.194 85.115,7.187 85.500 C 7.180 85.885,6.910 86.549,6.587 86.976 C 6.264 87.404,6.000 88.079,6.000 88.476 C 6.000 88.874,5.820 89.200,5.600 89.200 C 5.380 89.200,5.200 89.650,5.200 90.200 C 5.200 90.750,5.036 91.200,4.835 91.200 C 4.634 91.200,4.349 91.920,4.200 92.800 C 4.051 93.680,3.766 94.400,3.565 94.400 C 3.364 94.400,3.200 94.850,3.200 95.400 C 3.200 95.950,3.020 96.400,2.800 96.400 C 2.580 96.400,2.400 97.019,2.400 97.776 C 2.400 98.533,2.238 99.253,2.039 99.376 C 1.841 99.498,1.549 100.724,1.391 102.099 C 1.233 103.475,0.900 104.728,0.652 104.885 C -0.000 105.297,0.004 352.035,0.655 352.839 C 0.906 353.147,1.239 354.525,1.395 355.901 C 1.551 357.276,1.841 358.502,2.039 358.624 C 2.238 358.747,2.400 359.251,2.400 359.744 C 2.400 360.736,3.250 362.792,3.662 362.797 C 3.807 362.799,4.049 363.700,4.200 364.800 C 4.351 365.900,4.638 366.800,4.838 366.800 C 5.037 366.800,5.200 367.160,5.200 367.600 C 5.200 368.040,5.366 368.400,5.568 368.400 C 5.771 368.400,6.063 368.985,6.218 369.700 C 6.374 370.415,6.614 371.090,6.752 371.200 C 6.891 371.310,7.543 372.480,8.202 373.800 C 8.861 375.120,9.715 376.491,10.100 376.847 C 10.485 377.203,10.800 377.704,10.800 377.961 C 10.800 378.564,11.978 380.417,12.890 381.247 C 13.280 381.603,13.600 382.099,13.600 382.350 C 13.600 382.600,14.050 383.197,14.600 383.675 C 15.150 384.153,15.600 384.742,15.600 384.985 C 15.600 385.227,16.500 386.262,17.600 387.284 C 18.700 388.307,19.600 389.307,19.600 389.507 C 19.600 389.866,22.200 392.400,22.567 392.400 C 22.671 392.400,23.642 393.300,24.724 394.400 C 25.807 395.500,26.863 396.400,27.072 396.400 C 27.280 396.400,27.968 396.940,28.600 397.600 C 29.232 398.260,29.941 398.803,30.175 398.807 C 30.409 398.811,31.026 399.262,31.546 399.811 C 32.066 400.359,32.966 400.925,33.546 401.068 C 34.126 401.211,34.891 401.659,35.247 402.064 C 35.603 402.469,36.098 402.800,36.347 402.800 C 36.596 402.800,36.800 402.972,36.800 403.182 C 36.800 403.392,37.430 403.682,38.200 403.826 C 38.970 403.971,39.600 404.249,39.600 404.445 C 39.600 404.640,39.870 404.800,40.200 404.800 C 40.530 404.800,40.800 404.960,40.800 405.155 C 40.800 405.351,41.430 405.629,42.200 405.774 C 42.970 405.918,43.600 406.208,43.600 406.418 C 43.600 406.628,43.960 406.800,44.400 406.800 C 44.840 406.800,45.200 406.980,45.200 407.200 C 45.200 407.420,45.650 407.600,46.200 407.600 C 46.750 407.600,47.200 407.760,47.200 407.955 C 47.200 408.150,48.010 408.431,49.000 408.579 C 49.990 408.728,50.800 409.018,50.800 409.225 C 50.800 409.431,51.329 409.600,51.976 409.600 C 52.623 409.600,53.253 409.762,53.376 409.961 C 53.498 410.159,54.724 410.449,56.099 410.605 C 57.475 410.761,58.853 411.094,59.161 411.345 C 59.965 411.996,307.103 412.000,307.515 411.348 C 307.672 411.100,308.925 410.767,310.301 410.609 C 311.676 410.451,312.902 410.159,313.024 409.961 C 313.147 409.762,313.766 409.600,314.400 409.600 C 315.034 409.600,315.654 409.436,315.778 409.235 C 315.903 409.034,316.723 408.748,317.602 408.600 C 318.481 408.451,319.200 408.166,319.200 407.965 C 319.200 407.764,319.650 407.600,320.200 407.600 C 320.750 407.600,321.200 407.420,321.200 407.200 C 321.200 406.980,321.472 406.800,321.805 406.800 C 322.138 406.800,322.723 406.629,323.105 406.420 C 323.487 406.212,325.060 405.464,326.600 404.760 C 328.140 404.055,329.460 403.326,329.533 403.139 C 329.607 402.953,329.922 402.800,330.233 402.800 C 330.545 402.800,330.800 402.663,330.800 402.495 C 330.800 402.327,331.143 402.012,331.561 401.795 C 331.980 401.578,332.970 401.064,333.761 400.654 C 334.553 400.244,335.200 399.749,335.200 399.554 C 335.200 399.359,335.427 399.200,335.704 399.200 C 335.981 399.200,336.693 398.750,337.287 398.200 C 337.880 397.650,338.487 397.200,338.635 397.200 C 338.784 397.200,339.468 396.603,340.156 395.874 C 340.844 395.145,341.706 394.380,342.072 394.174 C 343.046 393.626,346.872 389.900,347.800 388.595 C 348.240 387.977,349.275 386.787,350.100 385.951 C 350.925 385.115,351.600 384.321,351.600 384.187 C 351.600 384.053,351.825 383.692,352.100 383.385 C 353.287 382.062,353.600 381.609,353.600 381.217 C 353.600 380.988,353.768 380.800,353.973 380.800 C 354.178 380.800,354.474 380.395,354.630 379.900 C 354.787 379.405,355.206 378.730,355.563 378.400 C 355.919 378.070,356.569 377.080,357.006 376.200 C 357.442 375.320,357.935 374.540,358.100 374.467 C 358.265 374.393,358.400 374.078,358.400 373.767 C 358.400 373.455,358.560 373.200,358.755 373.200 C 358.951 373.200,359.229 372.570,359.374 371.800 C 359.518 371.030,359.764 370.400,359.920 370.400 C 360.077 370.400,360.447 369.815,360.743 369.100 C 361.039 368.385,361.532 367.233,361.840 366.540 C 362.148 365.846,362.400 364.901,362.400 364.440 C 362.400 363.978,362.580 363.600,362.800 363.600 C 363.020 363.600,363.200 363.150,363.200 362.600 C 363.200 362.050,363.360 361.600,363.555 361.600 C 363.934 361.600,364.116 360.926,364.878 356.700 C 365.146 355.215,365.507 354.000,365.682 354.000 C 365.857 354.000,366.000 353.046,366.000 351.880 C 366.000 350.714,366.225 349.535,366.500 349.260 C 366.898 348.862,367.000 324.217,367.000 228.713 C 367.000 133.032,366.899 108.633,366.500 108.500 C 366.183 108.394,366.000 107.549,366.000 106.190 C 366.000 105.012,365.838 103.947,365.639 103.824 C 365.441 103.702,365.153 102.521,365.000 101.200 C 364.847 99.879,364.559 98.698,364.361 98.576 C 364.162 98.453,364.000 97.924,364.000 97.400 C 364.000 96.876,363.820 96.336,363.600 96.200 C 363.380 96.064,363.200 95.603,363.200 95.176 C 363.200 94.749,363.020 94.400,362.800 94.400 C 362.080 94.400,362.381 92.590,363.200 92.000 C 363.640 91.683,364.000 91.193,364.000 90.912 C 364.000 90.630,364.177 90.400,364.392 90.400 C 364.608 90.400,364.898 89.950,365.036 89.400 C 365.174 88.850,365.427 88.400,365.598 88.400 C 365.769 88.400,366.208 87.770,366.573 87.000 C 366.939 86.230,367.409 85.600,367.619 85.600 C 367.828 85.600,368.000 85.401,368.000 85.158 C 368.000 84.915,368.450 84.181,369.000 83.527 C 369.550 82.873,370.000 82.082,370.000 81.769 C 370.000 81.456,370.152 81.200,370.337 81.200 C 370.522 81.200,371.013 80.570,371.428 79.800 C 371.843 79.030,372.321 78.400,372.491 78.400 C 372.661 78.400,372.800 78.130,372.800 77.800 C 372.800 77.470,372.952 77.200,373.137 77.200 C 373.322 77.200,373.813 76.570,374.228 75.800 C 374.643 75.030,375.121 74.400,375.291 74.400 C 375.461 74.400,375.600 74.130,375.600 73.800 C 375.600 73.470,375.768 73.200,375.973 73.200 C 376.178 73.200,376.474 72.795,376.630 72.300 C 376.787 71.805,377.249 71.109,377.657 70.753 C 378.066 70.397,378.400 69.924,378.400 69.702 C 378.400 69.480,378.670 69.074,379.000 68.800 C 379.330 68.526,379.600 67.983,379.600 67.594 C 379.600 67.204,379.873 66.781,380.206 66.653 C 380.539 66.525,380.985 65.966,381.196 65.410 C 381.407 64.855,381.765 64.400,381.990 64.400 C 382.216 64.400,382.400 64.175,382.400 63.900 C 382.401 63.625,382.851 62.877,383.400 62.238 C 383.950 61.599,384.400 60.834,384.400 60.538 C 384.400 60.242,384.552 60.000,384.737 60.000 C 384.922 60.000,385.413 59.370,385.828 58.600 C 386.243 57.830,386.721 57.200,386.891 57.200 C 387.061 57.200,387.200 56.930,387.200 56.600 C 387.200 56.270,387.352 56.000,387.537 56.000 C 387.722 56.000,388.213 55.370,388.628 54.600 C 389.043 53.830,389.521 53.200,389.691 53.200 C 389.861 53.200,390.000 52.930,390.000 52.600 C 390.000 52.270,390.159 52.000,390.354 52.000 C 390.549 52.000,391.008 51.370,391.373 50.600 C 391.739 49.830,392.209 49.200,392.419 49.200 C 392.628 49.200,392.800 48.859,392.800 48.443 C 392.800 48.026,393.070 47.582,393.400 47.455 C 393.730 47.329,394.000 46.899,394.000 46.501 C 394.000 46.103,394.360 45.517,394.800 45.200 C 395.240 44.883,395.600 44.393,395.600 44.112 C 395.600 43.830,395.768 43.600,395.973 43.600 C 396.178 43.600,396.450 43.272,396.578 42.871 C 396.705 42.469,397.122 41.789,397.505 41.360 C 399.438 39.188,399.800 37.710,399.800 32.000 C 399.800 25.004,398.057 21.943,390.972 16.499 C 390.327 16.004,388.752 14.654,387.471 13.499 C 386.190 12.345,384.544 10.860,383.813 10.200 C 383.081 9.540,381.719 8.370,380.785 7.600 C 379.852 6.830,378.241 5.390,377.206 4.400 C 372.599 -0.005,365.535 -1.579,361.081 0.808 M295.900 82.262 C 297.715 82.403,299.200 82.686,299.200 82.890 C 299.200 83.199,292.672 92.167,291.987 92.800 C 291.868 92.910,290.828 94.307,289.678 95.904 C 288.527 97.501,287.330 99.121,287.018 99.504 C 286.235 100.464,275.627 114.585,274.074 116.733 C 273.704 117.247,272.680 118.610,271.800 119.764 C 270.920 120.917,269.840 122.356,269.400 122.963 C 268.960 123.569,265.720 127.893,262.200 132.571 C 258.680 137.249,255.440 141.567,255.000 142.165 C 253.105 144.740,241.143 160.654,240.692 161.200 C 240.419 161.530,239.222 163.150,238.032 164.800 C 236.842 166.450,235.759 167.890,235.624 168.000 C 235.490 168.110,234.399 169.550,233.200 171.200 C 232.001 172.850,230.925 174.290,230.808 174.400 C 230.691 174.510,230.066 175.320,229.419 176.200 C 228.772 177.080,228.125 177.890,227.981 178.000 C 227.837 178.110,227.648 178.400,227.560 178.644 C 227.472 178.889,226.916 179.699,226.325 180.444 C 225.733 181.190,222.428 185.580,218.979 190.200 C 215.531 194.820,212.292 199.140,211.783 199.800 C 211.274 200.460,208.315 204.398,205.207 208.550 C 202.100 212.703,199.342 216.309,199.079 216.565 C 197.861 217.746,195.664 219.200,195.096 219.200 C 194.750 219.200,194.393 219.421,194.303 219.691 C 194.076 220.372,186.612 220.372,185.931 219.691 C 185.661 219.421,185.116 219.200,184.720 219.200 C 184.324 219.200,184.000 219.020,184.000 218.800 C 184.000 218.580,183.812 218.400,183.583 218.400 C 183.152 218.400,182.321 217.799,174.200 211.621 C 171.560 209.613,168.980 207.661,168.467 207.285 C 167.171 206.334,163.127 203.264,162.400 202.678 C 162.070 202.413,160.450 201.222,158.800 200.032 C 157.150 198.842,155.710 197.751,155.600 197.606 C 155.490 197.462,154.320 196.559,153.000 195.600 C 151.680 194.641,150.510 193.747,150.400 193.615 C 150.290 193.482,149.210 192.662,148.000 191.793 C 145.407 189.930,145.352 189.888,143.800 188.669 C 143.140 188.150,140.710 186.308,138.400 184.576 C 136.090 182.843,134.020 181.276,133.800 181.094 C 133.580 180.911,132.410 180.032,131.200 179.141 C 129.990 178.249,128.460 177.097,127.800 176.580 C 127.140 176.063,125.408 174.755,123.952 173.672 C 120.998 171.477,111.732 164.470,110.800 163.725 C 107.954 161.453,101.495 156.800,101.187 156.800 C 100.974 156.800,100.800 156.644,100.800 156.453 C 100.800 155.980,96.478 154.800,94.746 154.800 C 90.402 154.800,85.706 157.756,82.423 162.556 C 82.106 163.020,81.733 163.490,81.594 163.600 C 81.456 163.710,79.495 166.050,77.236 168.800 C 74.978 171.550,72.785 174.207,72.364 174.704 C 69.420 178.179,68.662 184.243,70.616 188.689 C 71.859 191.516,194.854 315.044,198.600 317.227 C 202.172 319.309,207.806 318.467,209.964 315.529 C 210.314 315.053,212.169 312.399,214.087 309.632 C 216.005 306.864,217.760 304.383,217.987 304.117 C 218.214 303.851,218.400 303.446,218.400 303.217 C 218.400 302.988,218.539 302.800,218.709 302.800 C 218.879 302.800,219.357 302.170,219.772 301.400 C 220.187 300.630,220.678 300.000,220.863 300.000 C 221.048 300.000,221.200 299.834,221.200 299.632 C 221.200 299.335,224.184 294.712,225.488 292.988 C 225.660 292.762,227.240 290.422,229.000 287.788 C 230.760 285.155,232.335 282.940,232.500 282.867 C 232.665 282.793,232.800 282.493,232.800 282.200 C 232.800 281.907,232.935 281.607,233.100 281.533 C 233.265 281.460,235.013 278.970,236.986 276.000 C 238.958 273.030,240.670 270.510,240.791 270.400 C 240.911 270.290,242.818 267.500,245.028 264.200 C 251.811 254.070,254.955 249.418,255.302 249.000 C 255.588 248.654,258.538 244.289,267.332 231.200 C 268.440 229.550,269.449 228.110,269.574 228.000 C 269.698 227.890,271.413 225.370,273.386 222.400 C 275.358 219.430,277.068 216.910,277.186 216.800 C 277.303 216.690,277.580 216.292,277.800 215.916 C 278.020 215.540,280.540 211.794,283.400 207.592 C 286.260 203.390,288.780 199.658,289.000 199.298 C 289.220 198.938,289.540 198.454,289.712 198.222 C 290.814 196.731,302.827 179.054,303.400 178.080 C 303.620 177.706,303.890 177.310,304.000 177.200 C 304.110 177.090,305.820 174.570,307.800 171.600 C 309.780 168.630,311.491 166.110,311.602 166.000 C 311.713 165.890,313.431 163.370,315.420 160.400 C 321.791 150.885,325.776 145.005,325.992 144.800 C 326.108 144.690,326.879 143.565,327.705 142.300 C 328.532 141.035,329.386 140.000,329.604 140.000 C 329.864 140.000,330.000 174.908,330.000 241.821 C 330.000 348.805,330.025 347.120,328.383 350.095 C 328.173 350.477,327.999 351.017,327.998 351.295 C 327.989 354.062,321.169 363.532,316.394 367.407 C 312.035 370.944,305.205 374.400,302.572 374.400 C 302.125 374.400,301.589 374.564,301.380 374.764 C 299.392 376.667,67.073 376.656,65.020 374.752 C 64.811 374.559,64.271 374.400,63.820 374.400 C 62.178 374.399,54.566 371.097,53.600 369.966 C 53.490 369.837,53.111 369.567,52.758 369.366 C 50.982 368.354,46.612 364.434,45.199 362.586 C 44.869 362.154,43.954 360.990,43.166 360.000 C 41.615 358.051,38.400 351.783,38.400 350.709 C 38.400 350.345,38.240 349.948,38.044 349.827 C 37.849 349.706,37.589 349.021,37.468 348.304 C 37.347 347.587,37.055 345.967,36.819 344.705 C 36.519 343.097,36.427 307.967,36.513 227.305 C 36.646 101.750,36.456 111.972,38.770 106.000 C 42.606 96.099,51.639 87.196,60.800 84.287 C 65.113 82.918,65.970 82.718,68.805 82.421 C 72.393 82.047,291.160 81.893,295.900 82.262 " stroke="none" fill="#543474" fill-rule="evenodd"></path><path id="path2" d="M68.622 82.747 C 67.975 82.886,119.095 82.957,182.222 82.904 C 248.021 82.849,297.236 82.958,297.553 83.160 C 298.001 83.446,297.898 83.808,297.011 85.057 L 295.914 86.600 297.157 85.215 C 298.634 83.570,298.713 82.977,297.500 82.652 C 296.298 82.330,70.129 82.424,68.622 82.747 M61.000 84.614 C 60.000 85.096,59.966 85.151,60.800 84.948 C 61.933 84.671,63.207 84.021,62.600 84.030 C 62.380 84.033,61.660 84.296,61.000 84.614 M293.923 89.100 C 293.160 89.989,292.695 90.800,292.949 90.800 C 293.057 90.800,293.530 90.260,294.000 89.600 C 294.932 88.291,294.884 87.981,293.923 89.100 M50.400 90.641 C 49.190 91.644,47.840 92.839,47.400 93.296 C 46.960 93.753,47.995 93.007,49.700 91.638 C 52.375 89.490,53.137 88.771,52.700 88.809 C 52.645 88.813,51.610 89.638,50.400 90.641 M291.104 92.815 C 289.687 94.863,289.973 94.854,291.600 92.800 C 292.297 91.920,292.717 91.207,292.534 91.215 C 292.350 91.224,291.707 91.944,291.104 92.815 M287.504 97.644 C 286.901 98.500,286.487 99.200,286.583 99.200 C 286.869 99.200,288.926 96.392,288.756 96.233 C 288.670 96.154,288.107 96.788,287.504 97.644 M41.620 100.761 C 41.160 101.663,40.860 102.400,40.952 102.400 C 41.253 102.400,42.838 99.505,42.644 99.311 C 42.541 99.207,42.080 99.860,41.620 100.761 M282.575 104.268 C 281.959 105.076,281.659 105.611,281.909 105.456 C 282.421 105.140,284.153 102.800,283.875 102.800 C 283.776 102.800,283.191 103.461,282.575 104.268 M277.874 110.409 C 276.421 112.463,276.698 112.458,278.352 110.400 C 279.059 109.520,279.494 108.804,279.319 108.809 C 279.143 108.813,278.493 109.533,277.874 110.409 M37.400 111.600 C 37.248 112.291,37.207 112.941,37.309 113.042 C 37.411 113.144,37.609 112.653,37.750 111.950 C 38.083 110.283,37.760 109.960,37.400 111.600 M36.997 228.800 C 36.997 291.610,37.043 317.305,37.100 285.900 C 37.156 254.495,37.156 203.105,37.100 171.700 C 37.043 140.295,36.997 165.990,36.997 228.800 M273.104 116.815 C 271.687 118.863,271.973 118.854,273.600 116.800 C 274.297 115.920,274.717 115.207,274.534 115.215 C 274.350 115.224,273.707 115.944,273.104 116.815 M258.704 136.044 C 258.101 136.900,257.687 137.600,257.783 137.600 C 258.069 137.600,260.126 134.792,259.956 134.633 C 259.870 134.554,259.307 135.188,258.704 136.044 M328.880 141.220 C 328.616 141.643,328.405 142.127,328.412 142.295 C 328.419 142.463,328.644 142.240,328.912 141.800 C 329.297 141.169,329.442 162.047,329.601 240.800 L 329.802 340.600 329.901 240.724 C 329.956 185.792,329.856 140.758,329.680 140.649 C 329.504 140.541,329.144 140.798,328.880 141.220 M253.483 143.015 C 251.519 145.844,251.825 145.834,253.965 143.000 C 254.878 141.790,255.485 140.807,255.313 140.815 C 255.141 140.824,254.317 141.814,253.483 143.015 M325.855 145.600 C 324.831 147.140,324.078 148.400,324.182 148.400 C 324.285 148.400,325.066 147.365,325.915 146.100 C 327.798 143.299,328.095 142.800,327.882 142.800 C 327.792 142.800,326.880 144.060,325.855 145.600 M249.200 148.800 C 248.503 149.680,248.023 150.400,248.133 150.400 C 248.243 150.400,248.903 149.680,249.600 148.800 C 250.297 147.920,250.777 147.200,250.667 147.200 C 250.557 147.200,249.897 147.920,249.200 148.800 M320.087 154.100 C 318.622 156.264,318.311 156.800,318.523 156.800 C 318.669 156.800,320.280 154.557,321.320 152.908 C 322.153 151.585,321.101 152.603,320.087 154.100 M244.304 155.215 C 242.887 157.263,243.173 157.254,244.800 155.200 C 245.497 154.320,245.917 153.607,245.734 153.615 C 245.550 153.624,244.907 154.344,244.304 155.215 M86.047 157.422 C 85.379 157.984,84.266 159.199,83.573 160.122 L 82.313 161.800 83.587 160.400 C 84.289 159.630,85.508 158.415,86.298 157.700 C 87.995 156.163,87.800 155.947,86.047 157.422 M317.200 158.400 C 316.730 159.060,316.436 159.600,316.546 159.600 C 316.656 159.600,317.130 159.060,317.600 158.400 C 318.070 157.740,318.364 157.200,318.254 157.200 C 318.144 157.200,317.670 157.740,317.200 158.400 M105.985 159.571 C 106.747 160.247,107.542 160.800,107.752 160.800 C 107.962 160.800,108.058 160.748,107.967 160.684 C 107.875 160.620,107.080 160.067,106.200 159.455 L 104.600 158.342 105.985 159.571 M239.600 161.600 C 238.903 162.480,238.423 163.200,238.533 163.200 C 238.643 163.200,239.303 162.480,240.000 161.600 C 240.697 160.720,241.177 160.000,241.067 160.000 C 240.957 160.000,240.297 160.720,239.600 161.600 M80.081 164.253 C 79.136 165.434,78.444 166.400,78.544 166.400 C 78.831 166.400,82.119 162.383,81.951 162.237 C 81.868 162.166,81.026 163.073,80.081 164.253 M109.600 162.133 C 109.600 162.243,110.320 162.903,111.200 163.600 C 112.080 164.297,112.800 164.777,112.800 164.667 C 112.800 164.557,112.080 163.897,111.200 163.200 C 110.320 162.503,109.600 162.023,109.600 162.133 M312.654 164.988 C 310.444 168.408,310.401 168.824,312.562 165.874 C 313.178 165.034,313.597 164.264,313.495 164.161 C 313.392 164.059,313.014 164.431,312.654 164.988 M235.170 167.500 C 234.221 168.765,233.713 169.583,234.041 169.318 C 234.715 168.775,237.346 165.200,237.073 165.200 C 236.976 165.200,236.119 166.235,235.170 167.500 M116.364 167.326 C 116.981 168.103,119.200 169.773,119.200 169.461 C 119.200 169.354,118.435 168.671,117.500 167.941 C 116.565 167.212,116.054 166.935,116.364 167.326 M71.923 174.300 C 71.218 175.121,70.690 176.000,70.901 176.000 C 70.983 176.000,71.449 175.460,71.937 174.800 C 72.901 173.496,72.892 173.172,71.923 174.300 M305.712 175.300 C 304.047 177.771,303.771 178.368,304.924 177.000 C 306.065 175.647,307.346 173.600,307.051 173.600 C 306.944 173.600,306.341 174.365,305.712 175.300 M128.400 176.511 C 128.400 176.587,128.985 177.078,129.700 177.601 C 130.504 178.190,130.784 178.287,130.433 177.855 C 129.900 177.199,128.400 176.207,128.400 176.511 M68.893 181.600 C 68.893 182.370,68.975 182.685,69.076 182.300 C 69.176 181.915,69.176 181.285,69.076 180.900 C 68.975 180.515,68.893 180.830,68.893 181.600 M298.941 185.300 C 296.773 188.435,296.025 189.659,296.681 189.000 C 297.552 188.124,301.382 182.400,301.097 182.400 C 301.014 182.400,300.044 183.705,298.941 185.300 M139.164 184.526 C 139.781 185.303,142.000 186.973,142.000 186.661 C 142.000 186.554,141.235 185.871,140.300 185.141 C 139.365 184.412,138.854 184.135,139.164 184.526 M221.853 185.300 L 221.133 186.600 221.958 185.600 C 222.689 184.713,223.014 184.000,222.686 184.000 C 222.624 184.000,222.249 184.585,221.853 185.300 M145.185 189.171 C 145.947 189.847,146.742 190.400,146.952 190.400 C 147.162 190.400,147.258 190.348,147.167 190.284 C 147.075 190.220,146.280 189.667,145.400 189.055 L 143.800 187.942 145.185 189.171 M217.348 191.300 C 216.149 192.663,214.333 195.200,214.556 195.200 C 214.665 195.200,215.584 194.120,216.600 192.800 C 218.443 190.405,218.846 189.596,217.348 191.300 M72.783 192.900 C 74.441 194.666,74.800 194.984,74.800 194.683 C 74.800 194.619,73.945 193.764,72.900 192.783 L 71.000 191.000 72.783 192.900 M150.400 192.933 C 150.400 193.043,151.120 193.703,152.000 194.400 C 152.880 195.097,153.600 195.577,153.600 195.467 C 153.600 195.357,152.880 194.697,152.000 194.000 C 151.120 193.303,150.400 192.823,150.400 192.933 M291.385 196.500 C 290.768 197.435,290.520 197.989,290.832 197.731 C 291.433 197.234,292.964 194.800,292.676 194.800 C 292.583 194.800,292.002 195.565,291.385 196.500 M75.200 195.325 C 75.200 195.394,75.785 195.979,76.500 196.625 L 77.800 197.800 76.625 196.500 C 75.530 195.288,75.200 195.016,75.200 195.325 M154.000 195.727 C 154.000 195.824,155.035 196.681,156.300 197.630 C 157.565 198.579,158.383 199.087,158.118 198.759 C 157.575 198.085,154.000 195.454,154.000 195.727 M211.904 198.415 C 210.487 200.463,210.773 200.454,212.400 198.400 C 213.097 197.520,213.517 196.807,213.334 196.815 C 213.150 196.824,212.507 197.544,211.904 198.415 M82.600 202.800 C 84.571 204.780,86.273 206.400,86.383 206.400 C 86.493 206.400,84.971 204.780,83.000 202.800 C 81.029 200.820,79.327 199.200,79.217 199.200 C 79.107 199.200,80.629 200.820,82.600 202.800 M162.000 201.725 C 162.000 201.824,162.661 202.409,163.468 203.025 C 164.276 203.641,164.811 203.941,164.656 203.691 C 164.340 203.179,162.000 201.447,162.000 201.725 M207.715 204.100 C 205.981 206.367,205.066 207.720,205.409 207.513 C 205.881 207.227,208.537 203.600,208.274 203.600 C 208.177 203.600,207.926 203.825,207.715 204.100 M166.800 205.370 C 166.800 205.460,167.520 206.103,168.400 206.800 C 169.280 207.497,169.993 207.917,169.985 207.734 C 169.970 207.405,166.800 205.053,166.800 205.370 M98.203 218.405 C 138.217 258.446,196.481 316.629,196.719 316.784 C 196.873 316.885,172.250 292.180,142.001 261.884 C 111.751 231.588,86.912 206.800,86.803 206.800 C 86.694 206.800,91.824 212.022,98.203 218.405 M202.400 211.200 C 201.703 212.080,201.223 212.800,201.333 212.800 C 201.443 212.800,202.103 212.080,202.800 211.200 C 203.497 210.320,203.977 209.600,203.867 209.600 C 203.757 209.600,203.097 210.320,202.400 211.200 M173.200 210.133 C 173.200 210.243,173.920 210.903,174.800 211.600 C 175.680 212.297,176.400 212.777,176.400 212.667 C 176.400 212.557,175.680 211.897,174.800 211.200 C 173.920 210.503,173.200 210.023,173.200 210.133 M280.000 213.200 C 279.530 213.860,279.236 214.400,279.346 214.400 C 279.456 214.400,279.930 213.860,280.400 213.200 C 280.870 212.540,281.164 212.000,281.054 212.000 C 280.944 212.000,280.470 212.540,280.000 213.200 M179.784 215.289 C 180.453 215.888,181.159 216.383,181.354 216.389 C 181.549 216.395,181.189 216.008,180.554 215.528 C 178.781 214.189,178.438 214.083,179.784 215.289 M198.378 216.300 L 197.000 217.800 198.500 216.422 C 199.896 215.138,200.184 214.800,199.878 214.800 C 199.812 214.800,199.137 215.475,198.378 216.300 M278.246 215.800 C 277.891 216.350,277.309 217.295,276.953 217.900 L 276.305 219.000 277.110 218.026 C 278.060 216.876,279.321 214.800,279.069 214.800 C 278.971 214.800,278.601 215.250,278.246 215.800 M275.053 220.500 L 274.333 221.800 275.158 220.800 C 275.889 219.913,276.214 219.200,275.886 219.200 C 275.824 219.200,275.449 219.785,275.053 220.500 M189.100 219.882 C 189.595 219.978,190.405 219.978,190.900 219.882 C 191.395 219.787,190.990 219.709,190.000 219.709 C 189.010 219.709,188.605 219.787,189.100 219.882 M269.837 228.300 C 269.025 229.565,268.779 230.108,269.290 229.506 C 270.300 228.318,271.747 226.000,271.479 226.000 C 271.388 226.000,270.649 227.035,269.837 228.300 M263.846 237.000 C 263.491 237.550,262.909 238.495,262.553 239.100 L 261.905 240.200 262.710 239.226 C 263.660 238.076,264.921 236.000,264.669 236.000 C 264.571 236.000,264.201 236.450,263.846 237.000 M258.000 245.600 C 257.530 246.260,257.236 246.800,257.346 246.800 C 257.456 246.800,257.930 246.260,258.400 245.600 C 258.870 244.940,259.164 244.400,259.054 244.400 C 258.944 244.400,258.470 244.940,258.000 245.600 M255.414 249.435 C 255.041 250.004,254.805 250.538,254.889 250.622 C 254.973 250.707,255.358 250.241,255.744 249.588 C 256.606 248.128,256.348 248.009,255.414 249.435 M249.287 258.500 C 247.822 260.664,247.511 261.200,247.723 261.200 C 247.869 261.200,249.480 258.957,250.520 257.308 C 251.353 255.985,250.301 257.003,249.287 258.500 M246.400 262.800 C 245.930 263.460,245.636 264.000,245.746 264.000 C 245.856 264.000,246.330 263.460,246.800 262.800 C 247.270 262.140,247.564 261.600,247.454 261.600 C 247.344 261.600,246.870 262.140,246.400 262.800 M241.353 270.100 C 239.976 272.436,239.886 272.635,240.587 271.800 C 241.400 270.832,242.100 269.600,241.838 269.600 C 241.733 269.600,241.515 269.825,241.353 270.100 M221.285 299.800 C 220.587 300.790,220.149 301.600,220.312 301.600 C 220.475 301.600,220.858 301.195,221.165 300.700 C 221.471 300.205,221.985 299.395,222.307 298.900 C 223.366 297.270,222.581 297.962,221.285 299.800 M219.353 302.500 C 217.976 304.836,217.886 305.035,218.587 304.200 C 219.400 303.232,220.100 302.000,219.838 302.000 C 219.733 302.000,219.515 302.225,219.353 302.500 M213.753 310.892 C 212.131 313.273,211.789 313.988,212.885 312.706 C 213.901 311.518,215.349 309.200,215.076 309.200 C 214.983 309.200,214.387 309.962,213.753 310.892 M208.678 317.034 C 208.060 317.565,207.700 317.994,207.878 317.987 C 208.321 317.968,210.151 316.417,209.957 316.224 C 209.870 316.138,209.295 316.503,208.678 317.034 M202.300 319.082 C 202.795 319.178,203.605 319.178,204.100 319.082 C 204.595 318.987,204.190 318.909,203.200 318.909 C 202.210 318.909,201.805 318.987,202.300 319.082 M329.293 342.400 C 329.293 343.170,329.375 343.485,329.476 343.100 C 329.576 342.715,329.576 342.085,329.476 341.700 C 329.375 341.315,329.293 341.630,329.293 342.400 M37.256 345.200 C 37.256 345.530,37.411 346.160,37.600 346.600 C 37.817 347.104,37.944 347.178,37.944 346.800 C 37.944 346.470,37.789 345.840,37.600 345.400 C 37.383 344.896,37.256 344.822,37.256 345.200 M324.420 357.161 C 323.960 358.063,323.660 358.800,323.752 358.800 C 324.053 358.800,325.638 355.905,325.444 355.711 C 325.341 355.607,324.880 356.260,324.420 357.161 M320.559 362.500 C 318.807 364.521,318.287 365.200,318.490 365.200 C 318.607 365.200,319.367 364.390,320.179 363.400 C 321.681 361.566,321.979 360.863,320.559 362.500 M45.600 362.525 C 45.600 362.594,46.185 363.179,46.900 363.825 L 48.200 365.000 47.025 363.700 C 45.930 362.488,45.600 362.216,45.600 362.525 M50.882 367.431 C 51.477 368.077,52.557 368.945,53.282 369.360 C 54.833 370.247,54.518 369.917,51.800 367.808 C 50.162 366.537,49.996 366.469,50.882 367.431 M54.800 370.184 C 54.800 370.294,55.520 370.751,56.400 371.200 C 57.280 371.649,58.000 371.926,58.000 371.816 C 58.000 371.706,57.280 371.249,56.400 370.800 C 55.520 370.351,54.800 370.074,54.800 370.184 M65.000 374.400 C 66.196 374.914,67.195 374.914,66.400 374.400 C 66.070 374.187,65.440 374.022,65.000 374.034 L 64.200 374.056 65.000 374.400 M300.200 374.400 C 299.696 374.617,299.622 374.744,300.000 374.744 C 300.330 374.744,300.960 374.589,301.400 374.400 C 301.904 374.183,301.978 374.056,301.600 374.056 C 301.270 374.056,300.640 374.211,300.200 374.400 M69.700 375.087 C 70.305 375.178,71.295 375.178,71.900 375.087 C 72.505 374.995,72.010 374.920,70.800 374.920 C 69.590 374.920,69.095 374.995,69.700 375.087 M294.500 375.087 C 295.105 375.178,296.095 375.178,296.700 375.087 C 297.305 374.995,296.810 374.920,295.600 374.920 C 294.390 374.920,293.895 374.995,294.500 375.087 M128.100 375.500 C 158.405 375.557,207.995 375.557,238.300 375.500 C 268.605 375.443,243.810 375.397,183.200 375.397 C 122.590 375.397,97.795 375.443,128.100 375.500 " stroke="none" fill="#8080a4" fill-rule="evenodd"></path><path id="path3" d="M36.597 229.000 C 36.597 291.040,36.643 316.360,36.700 285.268 C 36.757 254.175,36.757 203.415,36.700 172.468 C 36.643 141.520,36.597 166.960,36.597 229.000 M85.375 158.500 L 84.200 159.800 85.500 158.625 C 86.215 157.979,86.800 157.394,86.800 157.325 C 86.800 157.016,86.470 157.288,85.375 158.500 M329.693 341.600 C 329.693 342.370,329.775 342.685,329.876 342.300 C 329.976 341.915,329.976 341.285,329.876 340.900 C 329.775 340.515,329.693 340.830,329.693 341.600 M71.105 375.483 C 71.602 375.579,72.322 375.575,72.705 375.475 C 73.087 375.375,72.680 375.296,71.800 375.301 C 70.920 375.305,70.607 375.387,71.105 375.483 M293.905 375.483 C 294.402 375.579,295.122 375.575,295.505 375.475 C 295.887 375.375,295.480 375.296,294.600 375.301 C 293.720 375.305,293.407 375.387,293.905 375.483 " stroke="none" fill="#7a709c" fill-rule="evenodd"></path><path id="path4" d="M127.300 82.300 C 158.045 82.357,208.355 82.357,239.100 82.300 C 269.845 82.243,244.690 82.197,183.200 82.197 C 121.710 82.197,96.555 82.243,127.300 82.300 M298.374 82.776 C 298.873 83.091,298.873 83.235,298.374 83.870 C 297.849 84.538,297.859 84.554,298.500 84.051 C 298.885 83.749,299.200 83.254,299.200 82.951 C 299.200 82.648,298.885 82.403,298.500 82.406 C 297.925 82.411,297.903 82.477,298.374 82.776 M296.575 86.268 C 295.959 87.076,295.659 87.611,295.909 87.456 C 296.421 87.140,298.153 84.800,297.875 84.800 C 297.776 84.800,297.191 85.461,296.575 86.268 M292.965 91.011 C 292.373 91.787,291.959 92.487,292.044 92.567 C 292.130 92.646,292.693 92.012,293.296 91.156 C 294.665 89.214,294.418 89.106,292.965 91.011 M46.050 94.285 C 44.502 95.981,43.315 97.449,43.412 97.546 C 43.509 97.643,43.992 97.200,44.486 96.561 C 44.979 95.922,46.267 94.455,47.349 93.300 C 48.431 92.145,49.215 91.200,49.090 91.200 C 48.966 91.200,47.598 92.588,46.050 94.285 M288.777 96.631 C 287.871 97.858,287.190 98.922,287.264 98.994 C 287.339 99.067,288.165 98.063,289.099 96.763 C 290.033 95.463,290.714 94.400,290.612 94.400 C 290.509 94.400,289.684 95.404,288.777 96.631 M282.400 105.200 C 281.703 106.080,281.223 106.800,281.333 106.800 C 281.443 106.800,282.103 106.080,282.800 105.200 C 283.497 104.320,283.977 103.600,283.867 103.600 C 283.757 103.600,283.097 104.320,282.400 105.200 M37.849 108.215 C 37.712 108.573,37.615 109.166,37.634 109.533 C 37.653 109.900,37.827 109.669,38.021 109.020 C 38.398 107.758,38.265 107.133,37.849 108.215 M279.144 109.500 C 277.993 110.889,277.506 111.600,277.704 111.600 C 277.814 111.600,278.386 110.970,278.973 110.200 C 280.063 108.771,280.195 108.232,279.144 109.500 M36.893 112.800 C 36.893 113.570,36.975 113.885,37.076 113.500 C 37.176 113.115,37.176 112.485,37.076 112.100 C 36.975 111.715,36.893 112.030,36.893 112.800 M274.965 115.011 C 274.373 115.787,273.959 116.487,274.044 116.567 C 274.130 116.646,274.693 116.012,275.296 115.156 C 276.665 113.214,276.418 113.106,274.965 115.011 M272.399 118.500 C 271.810 119.304,271.713 119.584,272.145 119.233 C 272.801 118.700,273.793 117.200,273.489 117.200 C 273.413 117.200,272.922 117.785,272.399 118.500 M267.599 124.900 C 267.010 125.704,266.913 125.984,267.345 125.633 C 268.001 125.100,268.993 123.600,268.689 123.600 C 268.613 123.600,268.122 124.185,267.599 124.900 M264.948 128.500 C 263.749 129.863,261.933 132.400,262.156 132.400 C 262.265 132.400,263.184 131.320,264.200 130.000 C 266.043 127.605,266.446 126.796,264.948 128.500 M259.375 135.868 C 258.759 136.676,258.459 137.211,258.709 137.056 C 259.221 136.740,260.953 134.400,260.675 134.400 C 260.576 134.400,259.991 135.061,259.375 135.868 M255.600 140.800 C 254.903 141.680,254.483 142.393,254.666 142.385 C 254.995 142.370,257.347 139.200,257.030 139.200 C 256.940 139.200,256.297 139.920,255.600 140.800 M253.199 144.100 C 252.610 144.904,252.513 145.184,252.945 144.833 C 253.601 144.300,254.593 142.800,254.289 142.800 C 254.213 142.800,253.722 143.385,253.199 144.100 M325.053 146.100 L 324.333 147.400 325.158 146.400 C 325.889 145.513,326.214 144.800,325.886 144.800 C 325.824 144.800,325.449 145.385,325.053 146.100 M250.551 147.700 C 249.313 149.112,248.683 150.000,248.917 150.000 C 249.036 150.000,249.703 149.280,250.400 148.400 C 251.755 146.689,251.859 146.207,250.551 147.700 M322.400 150.000 C 321.930 150.660,321.636 151.200,321.746 151.200 C 321.856 151.200,322.330 150.660,322.800 150.000 C 323.270 149.340,323.564 148.800,323.454 148.800 C 323.344 148.800,322.870 149.340,322.400 150.000 M245.553 154.300 C 244.633 155.565,243.592 156.946,243.240 157.369 C 242.888 157.792,242.813 158.013,243.073 157.862 C 243.602 157.553,247.718 152.000,247.417 152.000 C 247.312 152.000,246.473 153.035,245.553 154.300 M318.535 155.700 C 317.082 157.756,316.698 158.400,316.923 158.400 C 317.069 158.400,318.680 156.157,319.720 154.508 C 320.490 153.286,319.626 154.155,318.535 155.700 M93.900 154.682 C 94.395 154.778,95.205 154.778,95.700 154.682 C 96.195 154.587,95.790 154.509,94.800 154.509 C 93.810 154.509,93.405 154.587,93.900 154.682 M103.882 158.441 C 104.425 159.115,108.000 161.746,108.000 161.473 C 108.000 161.376,106.965 160.519,105.700 159.570 C 104.435 158.621,103.617 158.113,103.882 158.441 M313.353 163.300 C 311.976 165.636,311.886 165.835,312.587 165.000 C 313.400 164.032,314.100 162.800,313.838 162.800 C 313.733 162.800,313.515 163.025,313.353 163.300 M115.200 166.925 C 115.200 167.024,115.861 167.609,116.668 168.225 C 117.476 168.841,118.011 169.141,117.856 168.891 C 117.540 168.379,115.200 166.647,115.200 166.925 M121.744 171.909 C 122.060 172.421,124.400 174.153,124.400 173.875 C 124.400 173.776,123.739 173.191,122.932 172.575 C 122.124 171.959,121.589 171.659,121.744 171.909 M226.700 179.414 C 225.701 180.750,225.831 181.123,226.846 179.833 C 227.311 179.242,227.626 178.695,227.546 178.618 C 227.466 178.541,227.085 178.900,226.700 179.414 M69.328 183.200 C 69.328 184.630,69.401 185.215,69.489 184.500 C 69.578 183.785,69.578 182.615,69.489 181.900 C 69.401 181.185,69.328 181.770,69.328 183.200 M298.953 184.500 C 297.576 186.836,297.486 187.035,298.187 186.200 C 299.000 185.232,299.700 184.000,299.438 184.000 C 299.333 184.000,299.115 184.225,298.953 184.500 M221.200 186.800 C 220.503 187.680,220.023 188.400,220.133 188.400 C 220.243 188.400,220.903 187.680,221.600 186.800 C 222.297 185.920,222.777 185.200,222.667 185.200 C 222.557 185.200,221.897 185.920,221.200 186.800 M69.818 187.700 C 69.968 188.195,70.255 188.776,70.456 188.991 C 70.657 189.206,70.619 188.801,70.372 188.091 C 69.865 186.638,69.397 186.308,69.818 187.700 M143.167 188.145 C 143.700 188.801,145.200 189.793,145.200 189.489 C 145.200 189.413,144.615 188.922,143.900 188.399 C 143.096 187.810,142.816 187.713,143.167 188.145 M70.813 189.856 C 70.831 190.344,71.957 191.776,72.161 191.571 C 72.255 191.477,71.987 190.975,71.566 190.456 C 71.145 189.936,70.806 189.666,70.813 189.856 M216.304 193.244 C 215.701 194.100,215.287 194.800,215.383 194.800 C 215.669 194.800,217.726 191.992,217.556 191.833 C 217.470 191.754,216.907 192.388,216.304 193.244 M134.400 254.200 C 168.609 288.410,196.689 316.400,196.799 316.400 C 196.909 316.400,169.009 288.410,134.800 254.200 C 100.591 219.990,72.511 192.000,72.401 192.000 C 72.291 192.000,100.191 219.990,134.400 254.200 M291.687 195.300 C 290.227 197.456,289.912 198.000,290.120 198.000 C 290.212 198.000,290.944 197.010,291.747 195.800 C 292.551 194.590,293.125 193.600,293.023 193.600 C 292.922 193.600,292.320 194.365,291.687 195.300 M155.609 197.481 C 155.617 197.796,158.800 200.201,158.800 199.893 C 158.800 199.805,158.080 199.155,157.200 198.448 C 156.320 197.741,155.604 197.306,155.609 197.481 M206.800 206.000 C 206.103 206.880,205.623 207.600,205.733 207.600 C 205.843 207.600,206.503 206.880,207.200 206.000 C 207.897 205.120,208.377 204.400,208.267 204.400 C 208.157 204.400,207.497 205.120,206.800 206.000 M165.967 205.345 C 166.500 206.001,168.000 206.993,168.000 206.689 C 168.000 206.613,167.415 206.122,166.700 205.599 C 165.896 205.010,165.616 204.913,165.967 205.345 M284.254 206.188 C 282.044 209.608,282.001 210.024,284.162 207.074 C 284.778 206.234,285.197 205.464,285.095 205.361 C 284.992 205.259,284.614 205.631,284.254 206.188 M172.000 209.733 C 172.000 209.843,172.720 210.503,173.600 211.200 C 174.480 211.897,175.200 212.377,175.200 212.267 C 175.200 212.157,174.480 211.497,173.600 210.800 C 172.720 210.103,172.000 209.623,172.000 209.733 M202.370 211.900 C 201.421 213.165,200.913 213.983,201.241 213.718 C 201.915 213.175,204.546 209.600,204.273 209.600 C 204.176 209.600,203.319 210.635,202.370 211.900 M178.764 214.935 C 179.349 215.663,181.600 217.377,181.600 217.094 C 181.600 217.006,180.835 216.326,179.900 215.583 C 178.965 214.840,178.454 214.548,178.764 214.935 M276.253 218.100 L 275.533 219.400 276.358 218.400 C 277.089 217.513,277.414 216.800,277.086 216.800 C 277.024 216.800,276.649 217.385,276.253 218.100 M189.305 220.287 C 189.914 220.379,190.814 220.377,191.305 220.282 C 191.797 220.187,191.300 220.111,190.200 220.114 C 189.100 220.117,188.697 220.195,189.305 220.287 M268.824 228.918 C 268.523 229.403,268.015 230.205,267.693 230.700 C 267.371 231.195,267.195 231.600,267.301 231.600 C 267.583 231.600,269.686 228.353,269.515 228.181 C 269.435 228.102,269.124 228.433,268.824 228.918 M262.485 238.300 C 260.602 241.101,260.305 241.600,260.518 241.600 C 260.608 241.600,261.520 240.340,262.545 238.800 C 263.569 237.260,264.322 236.000,264.218 236.000 C 264.115 236.000,263.334 237.035,262.485 238.300 M256.953 246.500 C 255.576 248.836,255.486 249.035,256.187 248.200 C 257.000 247.232,257.700 246.000,257.438 246.000 C 257.333 246.000,257.115 246.225,256.953 246.500 M254.424 250.118 C 254.123 250.603,253.615 251.405,253.293 251.900 C 252.971 252.395,252.795 252.800,252.901 252.800 C 253.183 252.800,255.286 249.553,255.115 249.381 C 255.035 249.302,254.724 249.633,254.424 250.118 M251.600 254.400 C 251.130 255.060,250.836 255.600,250.946 255.600 C 251.056 255.600,251.530 255.060,252.000 254.400 C 252.470 253.740,252.764 253.200,252.654 253.200 C 252.544 253.200,252.070 253.740,251.600 254.400 M248.093 259.500 C 246.920 261.193,246.634 261.914,247.577 260.800 C 248.553 259.646,249.313 258.400,249.041 258.400 C 248.939 258.400,248.512 258.895,248.093 259.500 M239.853 271.700 L 239.133 273.000 239.958 272.000 C 240.689 271.113,241.014 270.400,240.686 270.400 C 240.624 270.400,240.249 270.985,239.853 271.700 M237.200 275.600 C 236.730 276.260,236.436 276.800,236.546 276.800 C 236.656 276.800,237.130 276.260,237.600 275.600 C 238.070 274.940,238.364 274.400,238.254 274.400 C 238.144 274.400,237.670 274.940,237.200 275.600 M234.953 278.900 C 233.576 281.236,233.486 281.435,234.187 280.600 C 235.000 279.632,235.700 278.400,235.438 278.400 C 235.333 278.400,235.115 278.625,234.953 278.900 M219.853 301.300 L 219.133 302.600 219.958 301.600 C 220.689 300.713,221.014 300.000,220.686 300.000 C 220.624 300.000,220.249 300.585,219.853 301.300 M211.483 313.500 C 210.173 315.354,209.987 315.743,210.888 314.739 C 212.084 313.408,213.825 310.800,213.518 310.800 C 213.448 310.800,212.532 312.015,211.483 313.500 M202.100 318.687 C 202.705 318.778,203.695 318.778,204.300 318.687 C 204.905 318.595,204.410 318.520,203.200 318.520 C 201.990 318.520,201.495 318.595,202.100 318.687 M36.677 343.800 C 36.800 345.120,36.968 346.275,37.050 346.367 C 37.318 346.664,37.115 343.834,36.780 342.600 C 36.565 341.811,36.530 342.222,36.677 343.800 M329.400 344.400 C 329.246 345.310,329.204 346.138,329.307 346.240 C 329.410 346.343,329.613 345.677,329.760 344.760 C 329.907 343.843,329.948 343.015,329.853 342.920 C 329.758 342.824,329.554 343.490,329.400 344.400 M39.228 353.000 C 39.228 353.220,39.486 353.850,39.800 354.400 C 40.114 354.950,40.372 355.220,40.372 355.000 C 40.372 354.780,40.114 354.150,39.800 353.600 C 39.486 353.050,39.228 352.780,39.228 353.000 M323.623 359.100 C 322.891 360.145,322.631 360.697,323.046 360.327 C 323.771 359.680,325.399 357.200,325.100 357.200 C 325.020 357.200,324.355 358.055,323.623 359.100 M41.606 357.833 C 41.609 358.035,42.256 358.920,43.044 359.800 L 44.476 361.400 43.161 359.600 C 42.437 358.610,41.790 357.725,41.723 357.633 C 41.655 357.542,41.603 357.632,41.606 357.833 M321.200 362.200 C 320.683 362.750,320.427 363.194,320.630 363.187 C 320.972 363.176,322.621 361.200,322.288 361.200 C 322.206 361.200,321.717 361.650,321.200 362.200 M46.084 363.571 C 46.620 364.325,47.675 365.381,48.429 365.917 L 49.800 366.893 48.700 365.931 C 48.095 365.403,47.040 364.347,46.355 363.585 L 45.110 362.200 46.084 363.571 M318.000 365.670 C 316.468 367.088,316.286 367.339,317.400 366.497 C 318.884 365.376,320.734 363.578,320.362 363.617 C 320.273 363.627,319.210 364.551,318.000 365.670 M51.167 368.145 C 51.700 368.801,53.200 369.793,53.200 369.489 C 53.200 369.413,52.615 368.922,51.900 368.399 C 51.096 367.810,50.816 367.713,51.167 368.145 M58.400 372.534 C 58.400 372.637,58.981 372.924,59.691 373.172 C 60.401 373.419,60.806 373.457,60.591 373.256 C 60.135 372.829,58.400 372.258,58.400 372.534 M65.152 374.912 C 65.345 375.105,66.019 375.198,66.651 375.119 C 67.709 374.987,67.681 374.959,66.300 374.768 C 65.440 374.649,64.950 374.710,65.152 374.912 M300.000 374.800 L 298.600 375.095 299.876 375.147 C 300.578 375.176,301.264 375.020,301.400 374.800 C 301.536 374.580,301.592 374.424,301.524 374.453 C 301.456 374.482,300.770 374.638,300.000 374.800 M128.100 375.900 C 158.405 375.957,207.995 375.957,238.300 375.900 C 268.605 375.843,243.810 375.797,183.200 375.797 C 122.590 375.797,97.795 375.843,128.100 375.900 " stroke="none" fill="#6c5d8c" fill-rule="evenodd"></path></g></svg>